<svg id="Layer_1" data-name="Layer 1" xmlns="http://www.w3.org/2000/svg" width="250" height="65.79" viewBox="0 0 250 65.79"><defs><style>.cls-1{fill:#2c2a29;}.cls-2{fill:#ffd200;}.cls-3{fill:#e21937;}</style></defs><title>UM_ComprehensiveCancerCenter_RGB_Logo</title><path class="cls-1" d="M34.22,30.47c0-2.79,0-3.29,0-3.87s-.18-.89-.77-1a4.07,4.07,0,0,0-.61,0,.13.13,0,0,1-.14-.11c0-.11.09-.14.28-.14.81,0,1.9,0,2.06,0s1.23,0,1.77,0c.2,0,.28,0,.28.14a.13.13,0,0,1-.14.11,3.54,3.54,0,0,0-.45,0c-.48.08-.62.4-.66,1s0,1.08,0,3.87V33c0,2.57.57,3.68,1.34,4.42a3.5,3.5,0,0,0,2.7,1,3.77,3.77,0,0,0,2.81-1.29c.82-1,1-2.54,1-4.38V30.47c0-2.79,0-3.29,0-3.87s-.18-.89-.77-1a4,4,0,0,0-.61,0,.13.13,0,0,1-.14-.11c0-.11.09-.14.28-.14.81,0,1.79,0,1.9,0s1,0,1.5,0c.2,0,.29,0,.29.14s-.07.11-.15.11a3.25,3.25,0,0,0-.44,0c-.49.11-.63.4-.66,1s0,1.08,0,3.87v1.92c0,1.93-.21,4.08-1.65,5.35a5.18,5.18,0,0,1-3.68,1.32,5.47,5.47,0,0,1-3.68-1.27c-.88-.84-1.56-2.09-1.56-4.71Z"/><path class="cls-1" d="M48.74,36.73c0,1.26.18,1.63.61,1.74a3.79,3.79,0,0,0,.79.09.12.12,0,0,1,.12.13c0,.09-.11.12-.29.12-.89,0-1.52-.05-1.66-.05s-.8.05-1.52.05c-.16,0-.25,0-.25-.12a.12.12,0,0,1,.13-.13,2.54,2.54,0,0,0,.64-.09c.39-.11.45-.52.45-1.9V27.86c0-.61.09-.77.21-.77s.45.3.61.46,2.54,2.69,5,5.19c1.56,1.61,3.24,3.42,3.72,3.92L57.11,29c0-1-.11-1.33-.59-1.42a5.63,5.63,0,0,0-.77-.07.13.13,0,0,1-.13-.14c0-.09.13-.11.31-.11.71,0,1.46,0,1.64,0s.7,0,1.34,0c.17,0,.29,0,.29.11a.18.18,0,0,1-.18.14,1.57,1.57,0,0,0-.37,0c-.52.11-.56.41-.56,1.32l0,8.92c0,1,0,1.09-.13,1.09s-.32-.13-1.2-.93c-.16-.14-2.43-2.38-4.09-4.12C50.81,32,49,30.09,48.56,29.56Z"/><path class="cls-1" d="M64.05,34.39c0,1.47,0,2.67.07,3.29,0,.45.11.74.57.81a5.4,5.4,0,0,0,.72.07.12.12,0,0,1,.12.13c0,.07-.07.12-.25.12-.88,0-1.89-.05-2-.05s-1.07.05-1.55.05c-.16,0-.25,0-.25-.12a.12.12,0,0,1,.12-.13,1.92,1.92,0,0,0,.48-.07c.31-.07.36-.36.42-.81.07-.62.09-1.82.09-3.29V31.7c0-2.36,0-2.79,0-3.27s-.16-.75-.5-.82a2.58,2.58,0,0,0-.48-.06.13.13,0,0,1-.13-.12c0-.09.07-.13.25-.13.52,0,1.5,0,1.59,0s1.09,0,1.58,0c.18,0,.25,0,.25.13a.15.15,0,0,1-.13.12,1.54,1.54,0,0,0-.39,0c-.43.09-.52.3-.56.84s0,.91,0,3.27Z"/><path class="cls-1" d="M73,36.83c.91-2,3-7.24,3.31-8.33a2.69,2.69,0,0,0,.14-.57.31.31,0,0,0-.21-.32,1.66,1.66,0,0,0-.54-.06c-.09,0-.18-.05-.18-.12s.11-.13.36-.13c.63,0,1.34,0,1.54,0s.77,0,1.23,0c.16,0,.25,0,.25.11s0,.14-.18.14a1.47,1.47,0,0,0-.75.18c-.21.14-.46.36-.87,1.4-.18.43-1,2.25-1.76,4.11-1,2.23-1.66,3.87-2,4.62-.42.92-.51,1.15-.68,1.15s-.28-.2-.59-.93l-3.86-9.33c-.36-.86-.57-1-1.09-1.14a2.74,2.74,0,0,0-.61-.06.13.13,0,0,1-.12-.14c0-.09.16-.11.41-.11.75,0,1.64,0,1.84,0s.86,0,1.47,0c.28,0,.43,0,.43.11a.15.15,0,0,1-.16.14,2.15,2.15,0,0,0-.58.07.27.27,0,0,0-.18.27,6.28,6.28,0,0,0,.43,1.27Z"/><path class="cls-1" d="M81.25,31.7c0-2.36,0-2.79,0-3.27s-.12-.77-.64-.84a4.73,4.73,0,0,0-.54,0,.15.15,0,0,1-.12-.12c0-.09.07-.13.25-.13.71,0,1.73,0,1.82,0s3.4,0,3.76,0,.59-.07.71-.09a.81.81,0,0,1,.22-.07s.07.07.07.14-.09.29-.13.72c0,.14,0,.82-.09,1s-.07.16-.14.16-.13-.07-.13-.2a1.4,1.4,0,0,0-.09-.53c-.1-.25-.26-.36-1.12-.47C84.77,28,83,28,82.77,28s-.09.05-.09.16v4.13c0,.11,0,.16.09.16s2.27,0,2.63,0,.6-.06.76-.22.18-.19.24-.19.09,0,.09.12-.09.34-.13.84c0,.31-.07.88-.07,1s0,.28-.14.28-.11,0-.11-.14a1.39,1.39,0,0,0-.07-.5c-.06-.22-.2-.39-.81-.47-.43,0-2.11-.07-2.37-.07a.1.1,0,0,0-.11.11v1.27c0,.52,0,2.29,0,2.6,0,1,.32,1.21,1.88,1.21A5.24,5.24,0,0,0,86.13,38a1.14,1.14,0,0,0,.71-1c0-.18.08-.24.16-.24s.11.13.11.24a12.81,12.81,0,0,1-.21,1.47c-.11.39-.27.39-.88.39-1.18,0-2.09,0-2.73-.06s-1.08,0-1.31,0l-.68,0-.91,0c-.16,0-.25,0-.25-.12a.12.12,0,0,1,.12-.13,4.13,4.13,0,0,0,.49-.07c.3-.05.34-.36.41-.81a30.73,30.73,0,0,0,.09-3.29Z"/><path class="cls-1" d="M89.67,31.7c0-2.36,0-2.79,0-3.27s-.12-.77-.64-.84a4.56,4.56,0,0,0-.54,0,.15.15,0,0,1-.12-.12c0-.09.07-.13.25-.13.71,0,1.77,0,1.86,0l2,0a5.19,5.19,0,0,1,2.94.66A2.69,2.69,0,0,1,96.43,30a4.45,4.45,0,0,1-1.93,3.47c1.28,1.61,2.38,3,3.29,3.94a2.87,2.87,0,0,0,1.75,1.06,3,3,0,0,0,.55.05.14.14,0,0,1,.15.13c0,.09-.09.12-.38.12h-1a3.2,3.2,0,0,1-1.68-.3,8.1,8.1,0,0,1-2.15-2.24c-.66-.82-1.36-1.81-1.7-2.22a.23.23,0,0,0-.21-.09l-2,0c-.08,0-.11,0-.11.13v.36c0,1.47,0,2.65.07,3.27.05.45.14.74.62.81a5.15,5.15,0,0,0,.7.07.12.12,0,0,1,.13.13c0,.07-.07.12-.25.12-.86,0-1.86-.05-1.93-.05s-1.08.05-1.56.05c-.16,0-.25,0-.25-.12a.13.13,0,0,1,.13-.13,2,2,0,0,0,.48-.07c.3-.07.34-.36.41-.81a30.73,30.73,0,0,0,.09-3.29ZM91,33a.21.21,0,0,0,.11.2,5.16,5.16,0,0,0,1.73.23,2,2,0,0,0,1.18-.26,2.72,2.72,0,0,0,1-2.33c0-1.9-1-3-2.72-3a6.38,6.38,0,0,0-1.13.09.19.19,0,0,0-.12.18Z"/><path class="cls-1" d="M99.84,38.6c-.21-.11-.23-.16-.23-.57,0-.76.07-1.37.09-1.62s0-.25.13-.25.14.06.14.18a2.49,2.49,0,0,0,0,.56,2.31,2.31,0,0,0,2.49,1.5c1.55,0,2.36-.88,2.36-2s-.59-1.61-2-2.65l-.71-.54c-1.7-1.27-2.26-2.2-2.26-3.26,0-1.79,1.42-2.86,3.49-2.86a7.6,7.6,0,0,1,1.63.18,2.06,2.06,0,0,0,.55.07c.13,0,.16,0,.16.11s-.07.57-.07,1.61c0,.23,0,.34-.12.34s-.13-.07-.15-.2a2.51,2.51,0,0,0-.23-.75c-.11-.18-.62-.75-2-.75-1.14,0-2.09.57-2.09,1.64s.48,1.53,2,2.58l.45.31c1.91,1.3,2.57,2.36,2.57,3.67a3,3,0,0,1-1.46,2.59,4.86,4.86,0,0,1-2.51.54,5.89,5.89,0,0,1-2.29-.41"/><path class="cls-1" d="M110.54,34.39c0,1.47,0,2.67.07,3.29,0,.45.1.74.57.81a5.43,5.43,0,0,0,.71.07.13.13,0,0,1,.13.13c0,.07-.07.12-.25.12-.88,0-1.9-.05-2-.05s-1.07.05-1.55.05c-.16,0-.25,0-.25-.12a.12.12,0,0,1,.12-.13,2,2,0,0,0,.48-.07c.31-.07.36-.36.42-.81.07-.62.08-1.82.08-3.29V31.7c0-2.36,0-2.79,0-3.27s-.16-.75-.5-.82a2.58,2.58,0,0,0-.48-.06.13.13,0,0,1-.13-.12c0-.09.07-.13.25-.13.52,0,1.5,0,1.59,0s1.09,0,1.58,0c.17,0,.25,0,.25.13a.16.16,0,0,1-.13.12,1.54,1.54,0,0,0-.39,0c-.43.09-.52.3-.56.84s0,.91,0,3.27Z"/><path class="cls-1" d="M119.14,34.39c0,1.47,0,2.67.07,3.29.05.45.12.74.61.81a5.13,5.13,0,0,0,.71.07.12.12,0,0,1,.13.13c0,.07-.08.12-.25.12-.86,0-1.86-.05-2-.05s-1.17.05-1.63.05c-.18,0-.25,0-.25-.12a.11.11,0,0,1,.12-.11,2.42,2.42,0,0,0,.47-.07c.32-.07.41-.38.46-.83.08-.62.08-1.82.08-3.29V28l-2.28,0c-1,0-1.35.12-1.59.48a2.78,2.78,0,0,0-.25.48c0,.13-.09.15-.16.15a.12.12,0,0,1-.1-.13c0-.16.32-1.52.33-1.65s.11-.28.17-.28a5.89,5.89,0,0,0,.69.18c.45.05,1.06.07,1.24.07h5.93a8.88,8.88,0,0,0,1.13-.07c.23,0,.38-.08.45-.08s.07.09.07.18c0,.47,0,1.56,0,1.74a.18.18,0,0,1-.15.2c-.07,0-.11-.06-.12-.27l0-.16c-.06-.47-.4-.81-1.9-.84l-2,0Z"/><path class="cls-1" d="M129.47,34.86a2.73,2.73,0,0,0-.34-1.56c-.12-.23-2.25-3.62-2.79-4.42a3.64,3.64,0,0,0-1-1.11,1.45,1.45,0,0,0-.66-.22.16.16,0,0,1-.16-.14c0-.07.06-.11.2-.11l1.55,0c.11,0,.76,0,1.36,0,.18,0,.22,0,.22.11s-.11.11-.25.16a.26.26,0,0,0-.2.25,1.19,1.19,0,0,0,.22.59l2.86,4.75c.32-.65,2.29-3.91,2.57-4.41a1.59,1.59,0,0,0,.27-.79c0-.21-.07-.34-.25-.39s-.23-.11-.23-.18.09-.09.25-.09c.41,0,1,0,1.09,0l1.54,0c.1,0,.19,0,.19.09a.18.18,0,0,1-.19.16,1.68,1.68,0,0,0-.74.2,2.81,2.81,0,0,0-.78.75c-.52.61-2.74,4.19-3.06,4.83a3.05,3.05,0,0,0-.2,1.53v1.3c0,.25,0,.9,0,1.52,0,.45.15.74.61.81a5.26,5.26,0,0,0,.72.07.12.12,0,0,1,.12.13c0,.07-.09.12-.25.12-.87,0-1.89-.05-2-.05s-1.07.05-1.54.05c-.18,0-.25,0-.25-.12a.12.12,0,0,1,.13-.13,1.83,1.83,0,0,0,.46-.07c.32-.07.43-.36.46-.81,0-.62,0-1.27,0-1.52Z"/><path class="cls-1" d="M168,36.52c.07.64.2,1.64,1,1.88a3.89,3.89,0,0,0,1.16.16c.08,0,.14,0,.14.09s-.16.16-.38.16c-.39,0-2.3-.05-3-.1-.41,0-.5-.09-.5-.18s0-.11.13-.13.1-.32.07-.64l-.86-9.17h0l-4.35,9.24c-.37.79-.43,1-.58,1s-.22-.18-.55-.82c-.46-.87-2-4-2.08-4.12-.16-.32-2.15-4.59-2.34-5.07h-.07L155,37c0,.28,0,.6,0,.9a.56.56,0,0,0,.46.55,2.75,2.75,0,0,0,.67.09c.07,0,.15,0,.15.09s-.11.16-.32.16c-.66,0-1.51-.05-1.65-.05s-1,.05-1.5.05c-.18,0-.3,0-.3-.16s.09-.09.18-.09a2.39,2.39,0,0,0,.53-.05c.59-.11.64-.8.71-1.47l1.28-11.59c0-.2.09-.32.19-.32s.18.07.27.26l5.43,11.18,5.22-11.16c.07-.16.15-.28.27-.28s.18.14.21.48Z"/><path class="cls-1" d="M175.8,27.69c.19-.5.27-.59.37-.59s.22.21.37.55c.29.64,2.79,6.88,3.75,9.17.57,1.35,1,1.55,1.33,1.65a1.89,1.89,0,0,0,.62.09c.09,0,.2,0,.2.13s-.18.12-.36.12-1.38,0-2.46,0c-.31,0-.55,0-.55-.11s0-.07.1-.11a.27.27,0,0,0,.14-.4l-1.4-3.47c0-.07,0-.09-.14-.09h-3.6a.16.16,0,0,0-.16.13l-.89,2.41a3.23,3.23,0,0,0-.23,1c0,.3.26.4.53.4h.14c.13,0,.16.06.16.13s-.09.12-.23.12c-.37,0-1.22-.05-1.4-.05s-.94.05-1.58.05c-.2,0-.3,0-.3-.12a.14.14,0,0,1,.14-.13,3.8,3.8,0,0,0,.46,0c.71-.09,1-.63,1.32-1.39ZM177.54,34c.07,0,.07,0,.05-.11l-1.54-4.14q-.13-.35-.27,0l-1.45,4.14c0,.07,0,.11,0,.11Z"/><path class="cls-1" d="M183.79,31.76c0-2.35,0-2.78,0-3.26s-.12-.76-.64-.83a4.24,4.24,0,0,0-.53,0,.15.15,0,0,1-.12-.12c0-.09.07-.13.25-.13.71,0,1.75,0,1.84,0l2,0a5.11,5.11,0,0,1,2.91.66,2.67,2.67,0,0,1,1.08,2.06,4.4,4.4,0,0,1-1.92,3.45c1.28,1.6,2.36,3,3.27,3.91a2.85,2.85,0,0,0,1.74,1,3,3,0,0,0,.55.05.14.14,0,0,1,.14.13c0,.09-.09.12-.37.12h-1a3.18,3.18,0,0,1-1.67-.3,8.1,8.1,0,0,1-2.13-2.22c-.65-.82-1.35-1.8-1.68-2.21a.25.25,0,0,0-.22-.08l-2,0c-.07,0-.1,0-.1.12v.36c0,1.46,0,2.63.07,3.25,0,.45.14.73.62.8a4.87,4.87,0,0,0,.69.07.12.12,0,0,1,.13.13c0,.07-.07.12-.25.12-.85,0-1.85-.05-1.92-.05s-1.06.05-1.54.05c-.16,0-.25,0-.25-.12a.13.13,0,0,1,.12-.13,1.92,1.92,0,0,0,.48-.07c.31-.07.34-.35.41-.8a30.41,30.41,0,0,0,.09-3.27ZM185.14,33a.21.21,0,0,0,.1.19,5.25,5.25,0,0,0,1.73.23,2.09,2.09,0,0,0,1.17-.26,2.72,2.72,0,0,0,.94-2.32c0-1.88-1-3-2.7-3a6.34,6.34,0,0,0-1.12.09.18.18,0,0,0-.12.17Z"/><path class="cls-1" d="M196.82,34.88a2.62,2.62,0,0,0-.34-1.54c-.12-.23-2.23-3.59-2.77-4.39a3.82,3.82,0,0,0-1-1.1,1.48,1.48,0,0,0-.66-.22.16.16,0,0,1-.16-.14c0-.07,0-.11.19-.11l1.55,0c.1,0,.74,0,1.35,0,.18,0,.21,0,.21.11s-.11.11-.25.16a.26.26,0,0,0-.19.25,1.17,1.17,0,0,0,.21.58l2.84,4.72c.32-.64,2.27-3.88,2.56-4.38a1.63,1.63,0,0,0,.26-.78c0-.21-.07-.34-.25-.39s-.22-.11-.22-.18.08-.09.24-.09c.41,0,1,0,1.09,0l1.52,0c.11,0,.2,0,.2.09a.18.18,0,0,1-.2.16,1.61,1.61,0,0,0-.72.2,2.56,2.56,0,0,0-.78.75,56.41,56.41,0,0,0-3,4.79,3,3,0,0,0-.2,1.51v1.3c0,.25,0,.89.06,1.51,0,.45.14.73.6.8a5.13,5.13,0,0,0,.71.07.12.12,0,0,1,.12.13c0,.07-.09.12-.24.12-.87,0-1.89-.05-2-.05s-1.07.05-1.53.05c-.18,0-.25,0-.25-.12a.12.12,0,0,1,.12-.13,1.77,1.77,0,0,0,.46-.07c.33-.07.43-.35.47-.8,0-.62,0-1.26,0-1.51Z"/><path class="cls-1" d="M206.7,34.46c0,2.22,0,3.13.31,3.39s.85.36,2.08.36c.82,0,1.51,0,1.88-.46a1.91,1.91,0,0,0,.38-.86c0-.1.07-.19.16-.19s.1.07.1.23a9,9,0,0,1-.23,1.51c-.11.35-.16.41-1,.41-1.12,0-2,0-2.72-.06l-1.7,0c-.08,0-.34,0-.64,0l-.91,0c-.16,0-.25,0-.25-.12a.13.13,0,0,1,.13-.13,2,2,0,0,0,.48-.07c.3-.07.33-.35.41-.8a30.41,30.41,0,0,0,.09-3.27V31.76c0-2.35,0-2.78,0-3.26s-.13-.76-.64-.83a4.55,4.55,0,0,0-.53,0,.16.16,0,0,1-.13-.12c0-.09.08-.13.25-.13.71,0,1.69,0,1.78,0s1.24,0,1.72,0c.16,0,.25,0,.25.13s-.08.1-.13.1l-.51,0c-.46.09-.55.32-.59.85s0,.91,0,3.26Z"/><path class="cls-1" d="M217.67,27.69c.19-.5.26-.59.37-.59s.21.21.37.55c.29.64,2.79,6.88,3.75,9.17.57,1.35,1,1.55,1.33,1.65a1.89,1.89,0,0,0,.62.09c.09,0,.2,0,.2.13s-.18.12-.36.12-1.38,0-2.47,0c-.3,0-.55,0-.55-.11s0-.07.11-.11a.27.27,0,0,0,.14-.4l-1.4-3.47c0-.07-.05-.09-.14-.09H216c-.07,0-.12,0-.15.13L215,37.14a3.23,3.23,0,0,0-.23,1c0,.3.26.4.53.4h.14c.13,0,.16.06.16.13s-.09.12-.23.12c-.37,0-1.22-.05-1.4-.05s-.94.05-1.58.05c-.2,0-.3,0-.3-.12a.14.14,0,0,1,.14-.13,3.8,3.8,0,0,0,.46,0c.71-.09,1-.63,1.31-1.39ZM219.41,34c.07,0,.07,0,.05-.11l-1.54-4.14q-.13-.35-.27,0l-1.46,4.14c0,.07,0,.11.06.11Z"/><path class="cls-1" d="M227,36.75c0,1.24.18,1.62.61,1.72a3.78,3.78,0,0,0,.78.09.13.13,0,0,1,.13.13c0,.09-.11.12-.29.12-.89,0-1.51-.05-1.65-.05s-.8.05-1.51.05c-.16,0-.25,0-.25-.12a.13.13,0,0,1,.13-.13,2.6,2.6,0,0,0,.64-.09c.39-.1.44-.51.44-1.88V27.94c0-.61.09-.77.21-.77s.45.3.6.46,2.53,2.67,4.94,5.16c1.55,1.6,3.21,3.39,3.69,3.89l-.15-7.57c0-1-.11-1.32-.59-1.41a5.52,5.52,0,0,0-.76-.07.13.13,0,0,1-.13-.14c0-.09.13-.11.3-.11.71,0,1.46,0,1.64,0s.69,0,1.33,0c.16,0,.28,0,.28.11a.18.18,0,0,1-.18.14,1.57,1.57,0,0,0-.37,0c-.51.1-.55.41-.55,1.31l0,8.85c0,1,0,1.09-.12,1.09s-.32-.13-1.19-.93c-.16-.14-2.41-2.36-4.07-4.08-1.8-1.91-3.56-3.75-4-4.29Z"/><path class="cls-1" d="M239.38,31.76c0-2.35,0-2.78,0-3.26s-.13-.76-.64-.83a4.39,4.39,0,0,0-.53,0,.15.15,0,0,1-.13-.12c0-.09.07-.13.25-.13.71,0,1.72,0,1.81,0s1.17,0,2.1,0c1.56,0,4.42-.14,6.26,1.73A5.31,5.31,0,0,1,250,33a6,6,0,0,1-1.69,4.24,6.22,6.22,0,0,1-4.74,1.75c-.67,0-1.51-.06-2.18-.09s-1.21-.09-1.28-.09l-.64,0-.94,0c-.16,0-.25,0-.25-.12a.13.13,0,0,1,.13-.13,2.06,2.06,0,0,0,.48-.07c.3-.07.33-.35.41-.8.08-.62.08-1.81.08-3.27Zm1.42,1.63c0,1.6,0,3,0,3.29a2.77,2.77,0,0,0,.18,1.08c.19.29.75.61,2.59.61A5.23,5.23,0,0,0,247.25,37a5.07,5.07,0,0,0,1.22-3.59A5.25,5.25,0,0,0,247,29.62c-1.47-1.49-3.19-1.69-5.06-1.69A4.32,4.32,0,0,0,241,28a.27.27,0,0,0-.2.3Z"/><path class="cls-1" d="M143.6,33.19a4.26,4.26,0,0,1-.54,2,4.19,4.19,0,0,1-1.51,1.59,3.63,3.63,0,0,1-1.88.58,2.09,2.09,0,0,1-1.53-.59,2.14,2.14,0,0,1-.59-1.55,4.06,4.06,0,0,1,.58-2,4.3,4.3,0,0,1,1.54-1.6,3.62,3.62,0,0,1,1.87-.59,2,2,0,0,1,1.48.6,2.09,2.09,0,0,1,.58,1.54m-1.13-.47a1.35,1.35,0,0,0-.31-1,1,1,0,0,0-.8-.34c-.67,0-1.28.48-1.85,1.43a5.66,5.66,0,0,0-.84,2.86,1.4,1.4,0,0,0,.33,1,1.06,1.06,0,0,0,.83.35c.64,0,1.24-.47,1.8-1.43a5.66,5.66,0,0,0,.84-2.9"/><path class="cls-1" d="M148,31.22l-.13.45h-1l-.75,3a18.08,18.08,0,0,1-1,3.05,5.26,5.26,0,0,1-1.55,2.1,2.11,2.11,0,0,1-1.25.45,1,1,0,0,1-.69-.25.52.52,0,0,1-.22-.44.48.48,0,0,1,.18-.38A.58.58,0,0,1,142,39a.45.45,0,0,1,.31.11.35.35,0,0,1,.13.27.4.4,0,0,1-.14.28c-.08.06-.11.11-.11.14a.12.12,0,0,0,0,.1.37.37,0,0,0,.2,0,1.17,1.17,0,0,0,.61-.19,1.67,1.67,0,0,0,.58-.55,4,4,0,0,0,.48-1q.09-.28.51-1.89l1.18-4.62h-1.18l.09-.45a2.77,2.77,0,0,0,.79-.08,1.06,1.06,0,0,0,.42-.3,5.27,5.27,0,0,0,.48-.83,7,7,0,0,1,.77-1.27,3.66,3.66,0,0,1,1.06-.91,2.27,2.27,0,0,1,1.05-.31,1.22,1.22,0,0,1,.83.27.74.74,0,0,1,.32.57.58.58,0,0,1-.16.4.54.54,0,0,1-.4.16.51.51,0,0,1-.35-.12.37.37,0,0,1-.13-.29.57.57,0,0,1,.09-.27.61.61,0,0,0,.09-.22.15.15,0,0,0-.07-.14.36.36,0,0,0-.25-.07,1.19,1.19,0,0,0-.77.27,3.08,3.08,0,0,0-.82,1.14c-.12.27-.35.93-.68,2Z"/><path class="cls-2" d="M0,0V4.09a63.28,63.28,0,0,1,26.18,9.65v-.61A73.15,73.15,0,0,0,0,0"/><path class="cls-1" d="M6.5,16.09A14.94,14.94,0,0,1,13,14.87a19.17,19.17,0,0,1,8.06,1.69,20.74,20.74,0,0,1,5.09,3.27v-3.1A63.3,63.3,0,0,0,0,7.07V19.78a21.42,21.42,0,0,1,6.5-3.69"/><polygon class="cls-1" points="13.12 17.93 2.1 22.99 24.27 22.99 13.12 17.93"/><path class="cls-3" d="M0,52.66A73.23,73.23,0,0,0,26.18,65.79V61.7A63.33,63.33,0,0,1,0,52.05Z"/><path class="cls-1" d="M3.56,50.79v-23a3.58,3.58,0,0,1,3.78-2.62V52.85a18.86,18.86,0,0,1-3.78-2.06"/><path class="cls-1" d="M11.13,54.39V27.76a3.58,3.58,0,0,1,3.78-2.62V55.85a23.43,23.43,0,0,1-3.78-1.46"/><path class="cls-1" d="M18.62,56.9V27.76a3.58,3.58,0,0,1,3.78-2.62V57.77a26.56,26.56,0,0,1-3.78-.87"/><path class="cls-1" d="M38.17,50.66h0l-2-3v4.52h-.61V46.6h.64l2,3,2-3h.64v5.59H40.2V47.66Z"/><path class="cls-1" d="M49.26,52.19h-.68l-.66-1.47h-3l-.67,1.47h-.64l2.55-5.63h.59Zm-2.85-4.9-1.28,2.86h2.55Z"/><path class="cls-1" d="M55.84,52.19,54.22,50h-1.6v2.17H52V46.6H54.4c1.23,0,2,.66,2,1.67a1.64,1.64,0,0,1-1.52,1.64l1.72,2.28Zm-1.49-5H52.62v2.27h1.72c.84,0,1.44-.43,1.44-1.16S55.25,47.18,54.35,47.18Z"/><path class="cls-1" d="M59.4,46.6H60v5h3.15v.58H59.4Z"/><path class="cls-1" d="M70,47.17H66.61v1.91h3v.58h-3v2h3.45v.57H66V46.6h4Z"/><path class="cls-1" d="M77.08,46.6h.61v5.59h-.5L73.57,47.6v4.59H73V46.6h.59l3.53,4.48Z"/><path class="cls-1" d="M85,47.17H81.53v1.91h3.06v.58H81.53v2H85v.57H80.9V46.6h4Z"/><path class="cls-1" d="M97.12,52.19h-.68l-.65-1.47H92.74l-.66,1.47h-.65L94,46.56h.59Zm-2.85-4.9L93,50.15h2.55Z"/><path class="cls-1" d="M104,46.6h.62v5.59h-.51l-3.61-4.59v4.59h-.62V46.6h.6L104,51.08Z"/><path class="cls-1" d="M109.74,52.19H107.8V46.6h1.94a2.8,2.8,0,1,1,0,5.59Zm0-5h-1.31v4.43h1.31a2.22,2.22,0,1,0,0-4.43Z"/><path class="cls-1" d="M121.71,49.09c1.25.27,1.82.73,1.82,1.59s-.8,1.59-1.91,1.59a3.29,3.29,0,0,1-2.29-.89l.4-.46a2.68,2.68,0,0,0,1.91.79c.76,0,1.25-.4,1.25-1s-.28-.83-1.45-1.07-1.88-.7-1.88-1.63a1.65,1.65,0,0,1,1.84-1.53,2.88,2.88,0,0,1,2,.69l-.36.48a2.49,2.49,0,0,0-1.62-.61c-.73,0-1.19.41-1.19.92S120.48,48.83,121.71,49.09Z"/><path class="cls-1" d="M128.44,52.19h-.64v-5h-1.87V46.6h4.39v.58h-1.88Z"/><path class="cls-1" d="M137.18,47.17h-3.41v1.91h3v.58h-3v2h3.45v.57h-4.09V46.6h4.05Z"/><path class="cls-1" d="M143.51,46.58H144l1.53,4.68,1.6-4.66h.67l-2,5.63h-.54l-1.53-4.54-1.55,4.54h-.53l-2-5.63h.69l1.6,4.66Z"/><path class="cls-1" d="M155.09,52.19h-.68l-.66-1.47h-3L150,52.19h-.64L152,46.56h.59Zm-2.85-4.9L151,50.15h2.55Z"/><path class="cls-1" d="M161.68,52.19,160.05,50h-1.6v2.17h-.63V46.6h2.41c1.23,0,2,.66,2,1.67a1.64,1.64,0,0,1-1.52,1.64l1.72,2.28Zm-1.5-5h-1.73v2.27h1.72c.84,0,1.44-.43,1.44-1.16S161.08,47.18,160.18,47.18Z"/><path class="cls-1" d="M167.29,52.19h-.64v-5h-1.88V46.6h4.4v.58h-1.88Z"/><path class="cls-1" d="M178.6,52.29a2.74,2.74,0,0,1-2.84-2.89,2.8,2.8,0,0,1,2.8-2.9,2.91,2.91,0,0,1,2.09.75l-.41.48a2.36,2.36,0,0,0-1.7-.65,2.19,2.19,0,0,0-2.13,2.31,2.17,2.17,0,0,0,2.22,2.33,2.56,2.56,0,0,0,1.61-.56V49.77h-1.7V49.2h2.31v2.23A3.36,3.36,0,0,1,178.6,52.29Z"/><path class="cls-1" d="M187.75,52.19,186.13,50h-1.6v2.17h-.63V46.6h2.41c1.23,0,2,.66,2,1.67a1.64,1.64,0,0,1-1.52,1.64l1.72,2.28Zm-1.49-5h-1.73v2.27h1.72c.84,0,1.44-.43,1.44-1.16S187.16,47.18,186.26,47.18Z"/><path class="cls-1" d="M195.35,47.17h-3.41v1.91H195v.58h-3.05v2h3.45v.57h-4.08V46.6h4Z"/><path class="cls-1" d="M202.34,47.17h-3.42v1.91H202v.58h-3.06v2h3.46v.57h-4.09V46.6h4.05Z"/><path class="cls-1" d="M209.39,46.6H210v5.59h-.5l-3.62-4.59v4.59h-.61V46.6h.59l3.52,4.48Z"/><path class="cls-1" d="M217.27,47.17h-3.42v1.91h3.06v.58h-3.06v2h3.45v.57h-4.08V46.6h4.05Z"/><path class="cls-1" d="M224.41,48a1.35,1.35,0,0,1-.89,1.3c.66.2,1.2.58,1.2,1.36,0,1-.81,1.53-2,1.53H220.2V46.6h2.39C223.69,46.6,224.41,47.14,224.41,48Zm-.64.09c0-.57-.44-.92-1.24-.92h-1.7v1.92h1.65C223.24,49.09,223.77,48.75,223.77,48.09Zm.31,2.53c0-.62-.51-1-1.48-1h-1.77v2h1.88C223.55,51.63,224.08,51.25,224.08,50.62Z"/><path class="cls-1" d="M232.82,52.19h-.68l-.66-1.47h-3l-.66,1.47h-.65l2.55-5.63h.6ZM230,47.29l-1.28,2.86h2.55Z"/><path class="cls-1" d="M239.92,49.8a2.33,2.33,0,1,1-4.66.05V46.6h.63v3.21c0,1.21.64,1.89,1.71,1.89s1.69-.62,1.69-1.85V46.6h.63Z"/><path class="cls-1" d="M245.73,50.66h0l-2-3v4.52H243V46.6h.64l2,3,2-3h.64v5.59h-.63V47.66Z"/><path class="cls-1" d="M38.46,65.52a3.53,3.53,0,0,1,0-7.06,3.55,3.55,0,0,1,2.66,1.08l-.52.57a3,3,0,0,0-2.15-.94,2.83,2.83,0,0,0,0,5.64,3,3,0,0,0,2.21-1l.5.5A3.55,3.55,0,0,1,38.46,65.52Z"/><path class="cls-1" d="M46.92,65.52A3.53,3.53,0,1,1,50.41,62,3.47,3.47,0,0,1,46.92,65.52Zm0-6.35A2.69,2.69,0,0,0,44.24,62a2.73,2.73,0,0,0,2.7,2.83A2.68,2.68,0,0,0,49.61,62,2.72,2.72,0,0,0,46.92,59.17Z"/><path class="cls-1" d="M56.71,63.53h0l-2.49-3.64V65.4h-.75V58.58h.78L56.7,62.3l2.49-3.72H60V65.4H59.2V59.88Z"/><path class="cls-1" d="M65.73,63H64.08v2.4h-.77V58.58h2.55c1.54,0,2.55.82,2.55,2.17S67.19,63,65.73,63Zm.07-3.71H64.08v3h1.68c1.13,0,1.87-.6,1.87-1.51S66.9,59.29,65.8,59.29Z"/><path class="cls-1" d="M75.92,65.4l-2-2.65H72V65.4h-.77V58.58h2.94c1.5,0,2.46.81,2.46,2a2,2,0,0,1-1.85,2l2.1,2.78ZM74.1,59.29H72v2.77h2.1c1,0,1.75-.53,1.75-1.41S75.2,59.29,74.1,59.29Z"/><path class="cls-1" d="M84.61,59.28H80.45v2.33h3.72v.7H80.45V64.7h4.21v.7h-5V58.58h4.93Z"/><path class="cls-1" d="M88.38,62.33V65.4h-.77V58.58h.77v3h3.94v-3h.77V65.4h-.77V62.33Z"/><path class="cls-1" d="M101.36,59.28H97.2v2.33h3.72v.7H97.2V64.7h4.21v.7h-5V58.58h4.93Z"/><path class="cls-1" d="M109.38,58.58h.75V65.4h-.61l-4.41-5.59V65.4h-.75V58.58h.72l4.3,5.47Z"/><path class="cls-1" d="M115.92,61.62c1.52.33,2.22.89,2.22,1.94s-1,1.94-2.33,1.94A4,4,0,0,1,113,64.41l.48-.57a3.22,3.22,0,0,0,2.34,1c.91,0,1.52-.48,1.52-1.17s-.34-1-1.78-1.31-2.29-.85-2.29-2a2,2,0,0,1,2.25-1.87,3.52,3.52,0,0,1,2.39.84l-.44.59a3,3,0,0,0-2-.74c-.89,0-1.46.49-1.46,1.11S114.41,61.3,115.92,61.62Z"/><path class="cls-1" d="M122,58.58V65.4h-.77V58.58Z"/><path class="cls-1" d="M130.49,58.58h.83l-2.93,6.87h-.69l-2.93-6.87h.86l2.43,5.88Z"/><path class="cls-1" d="M139,59.28h-4.17v2.33h3.73v.7h-3.73V64.7h4.21v.7h-5V58.58H139Z"/><path class="cls-1" d="M149.46,65.52a3.53,3.53,0,0,1,0-7.06,3.59,3.59,0,0,1,2.66,1.08l-.53.57a2.94,2.94,0,0,0-2.14-.94,2.83,2.83,0,0,0,0,5.64,2.94,2.94,0,0,0,2.2-1l.51.5A3.59,3.59,0,0,1,149.46,65.52Z"/><path class="cls-1" d="M161.29,65.4h-.83l-.79-1.8H156l-.81,1.8h-.79l3.11-6.87h.72Zm-3.48-6-1.56,3.48h3.11Z"/><path class="cls-1" d="M169.06,58.58h.75V65.4h-.61l-4.41-5.59V65.4H164V58.58h.72l4.3,5.47Z"/><path class="cls-1" d="M176.27,65.52a3.53,3.53,0,0,1,0-7.06A3.55,3.55,0,0,1,179,59.54l-.53.57a2.94,2.94,0,0,0-2.14-.94,2.83,2.83,0,0,0,0,5.64,2.94,2.94,0,0,0,2.2-1l.51.5A3.55,3.55,0,0,1,176.27,65.52Z"/><path class="cls-1" d="M186.68,59.28h-4.16v2.33h3.72v.7h-3.72V64.7h4.21v.7h-5V58.58h4.93Z"/><path class="cls-1" d="M194.38,65.4l-2-2.65h-2V65.4h-.77V58.58h2.94c1.5,0,2.47.81,2.47,2a2,2,0,0,1-1.86,2l2.1,2.78Zm-1.82-6.11h-2.11v2.77h2.1c1,0,1.76-.53,1.76-1.41S193.66,59.29,192.56,59.29Z"/><path class="cls-1" d="M205.59,65.52a3.53,3.53,0,0,1,0-7.06,3.58,3.58,0,0,1,2.67,1.08l-.53.57a3,3,0,0,0-2.15-.94,2.83,2.83,0,0,0,0,5.64,3,3,0,0,0,2.21-1l.51.5A3.59,3.59,0,0,1,205.59,65.52Z"/><path class="cls-1" d="M216,59.28h-4.16v2.33h3.72v.7h-3.72V64.7h4.21v.7h-5V58.58H216Z"/><path class="cls-1" d="M224,58.58h.75V65.4h-.61l-4.41-5.59V65.4H219V58.58h.72l4.3,5.47Z"/><path class="cls-1" d="M230.69,65.4h-.78V59.29h-2.29v-.71H233v.71h-2.29Z"/><path class="cls-1" d="M240.77,59.28H236.6v2.33h3.73v.7H236.6V64.7h4.21v.7h-5V58.58h4.94Z"/><path class="cls-1" d="M248.47,65.4l-2-2.65h-2V65.4h-.77V58.58h2.93c1.5,0,2.47.81,2.47,2a2,2,0,0,1-1.85,2l2.09,2.78Zm-1.83-6.11h-2.1v2.77h2.09c1,0,1.76-.53,1.76-1.41S247.75,59.29,246.64,59.29Z"/></svg>